<svg width="97" height="97" xmlns="http://www.w3.org/2000/svg">
 <g>
  <title>Layer 1</title>
  <g fill-rule="evenodd" clip-rule="evenodd" id="svg_1" stroke="null">
   <path fill="#fff" d="m0,0l97.756,0l0,103.756l-97.756,0l0,-103.756z" id="svg_2" stroke="null"/>
   <path d="m75.30857,38.88939l18.13463,0l0,24.90766l-17.95611,0l0.00101,0.00108c0.05426,1.70849 2.30601,4.6534 4.32547,4.6534c-5.92756,7.29741 -19.85285,16.73178 -30.93558,19.12227c-11.08222,-2.39049 -25.00853,-11.82539 -30.93507,-19.12227c2.01947,0 4.56637,-2.94491 4.62114,-4.6534l-0.30987,-0.00108l-17.94141,0l0,-24.90766l18.2528,0c0,-2.57942 -1.74814,-3.89981 -3.39283,-3.89981l0,-8.8062c10.02988,0 22.77149,-3.52248 29.76406,-10.00118c6.99308,6.47869 19.73418,10.00118 29.76406,10.00118l0,8.712c-1.64418,0 -3.39232,1.49372 -3.39232,3.99401l0.00002,0z" id="svg_3" stroke="null"/>
   <path fill="#fff" d="m91.66514,61.65902l0,-20.63106l-85.57428,0l0,20.63106l85.57428,0z" id="svg_4" stroke="null"/>
   <path d="m89.65024,59.52045l0,-16.35391l-81.54448,0l0,16.35391l81.54448,0z" id="svg_5" stroke="null"/>
   <path d="m48.878,21.71784c5.03751,4.34012 16.53458,7.79962 25.64601,8.41272l0,2.18594c-2.87452,0.95921 -3.43593,4.10436 -3.43593,6.57289l2.01389,0c0,-2.92499 1.33329,-4.81219 3.43695,-5.3467l0,-5.22074c-10.53399,-0.72344 -22.03106,-4.08821 -27.66092,-9.40369c-5.62986,5.31548 -17.12693,8.68024 -27.66092,9.40369l0,5.22074c2.10365,0.53451 3.43695,2.42171 3.43695,5.3467l2.01338,0c0,-2.46907 -0.66487,-5.55071 -3.43543,-6.55728l0,-2.20155c9.11194,-0.61364 20.6085,-4.0726 25.64601,-8.41272l0.00001,0zm-0.05934,63.60758c8.87257,-1.52548 24.1195,-11.71612 27.57166,-16.38567c-1.82168,-0.86393 -3.3482,-3.63229 -3.3482,-5.26811l-2.02961,0c0,1.63582 1.03712,4.04138 2.48909,5.33109c-3.91164,4.00962 -16.23891,12.72216 -24.65352,14.1529c-8.41512,-1.43074 -20.74188,-10.14328 -24.65302,-14.1529c1.45197,-1.28971 2.48909,-3.69527 2.48909,-5.33109l-2.03012,0c0,1.63582 -1.52601,4.40418 -3.3482,5.26811c3.45267,4.66955 18.64026,14.8602 27.51283,16.38567z" fill="#fff" id="svg_6" stroke="null"/>
   <path d="m32.55135,63.6711l-3.92635,0l0,6.41625c0.57764,0.55066 2.96327,2.34366 3.92635,3.03103l0,-2.60633c-0.53352,-0.34611 -1.61527,-1.14814 -2.07424,-1.60406l0,-2.59449l2.07424,0l0,-2.6424zm1.06704,0l0,10.1745c0.72573,0.51836 2.87401,1.83983 3.91113,2.45293l0,-2.64186c-0.8444,-0.40909 -1.46667,-0.78642 -2.07424,-1.25741l0,-8.72815l-1.83689,0l0,-0.00001zm10.86262,14.36444c0,0.98397 -0.54975,1.27195 -0.91338,1.13845c-1.35662,-0.5006 -3.1641,-1.36561 -4.38785,-1.98409c-0.52186,-0.26268 -0.70595,-0.51082 -0.70595,-1.12177l0,-11.52019c0,-0.61094 0.25307,-0.87039 0.75768,-0.87039l4.49182,0c0.50461,0 0.75768,0.30682 0.75768,0.91776l0,13.44022l0,0.00001zm-1.61476,-11.59609c0,-0.23361 -0.1562,-0.42255 -0.34892,-0.42255l-1.59549,0c-0.19221,0 -0.34841,0.18947 -0.34841,0.42255l0,8.58605c0,0.23361 0.16685,0.36172 0.34841,0.42255l1.59549,0.7073c0.19475,0.04844 0.34892,-0.07697 0.34892,-0.42255l0,-9.29334l0,-0.00001zm5.98233,14.26217c0.1846,-0.01561 0.77087,-0.15771 0.993,-0.23577l0,-14.37252l2.23653,0l0.25357,-2.42224l-3.51403,0l0.06187,0l-3.51403,0l0.31291,2.42224l2.25123,0l0,14.37252c0.14809,0.07805 0.73384,0.21962 0.91895,0.23577zm6.28205,-17.03053l-1.89674,0l0,15.83501c0.31088,-0.10927 1.65888,-0.64432 1.89674,-0.73905l0,-8.17588l1.92564,0l0,7.29634c0.50411,-0.25138 1.71873,-0.8494 1.86732,-0.94414l0,-13.27174l-1.86732,0l0,3.90035l-1.92564,0l0,-3.90089zm8.66718,0l-3.68951,0l0,12.64304c1.02241,-0.62871 2.88923,-1.72948 3.68951,-2.33612l0,-2.60741l-1.76336,1.16914l0,-2.54712l1.76336,-0.8171l0,-1.6988l-1.76336,0l0,-1.50987l1.76336,0l0,-2.29575l0,-0.00001zm5.39251,0l-4.13326,0l0,5.2525l2.1635,0l-2.1782,1.60406l0,2.61064c1.15579,-0.77081 3.54091,-2.68923 4.14848,-3.27057l0,-2.83133l-2.22283,0l0,-1.22566l2.22283,0l0,-2.13965l-0.00051,0l-0.00001,0.00001zm-38.22432,-24.78171l-2.02961,0l0,-7.56386c0.3261,-0.06298 1.77756,-0.31435 1.98498,-0.36172l1.62998,3.3653l1.52601,-4.05699c0.74044,-0.18894 2.20762,-0.55012 2.20762,-0.58188l0,9.19914l-2.13358,0l0,-3.58546l-1.60005,3.14515l-1.58535,-2.73606l0,3.17637l0,0.00001zm13.37402,-0.92368c0,0.61094 -0.28907,0.9183 -0.8652,0.9183l-5.1293,0c-0.57612,0 -0.8657,-0.25945 -0.8657,-0.87093l0,-7.84053c0,-0.61148 0.42601,-0.99473 1.04321,-1.21704c1.4616,-0.52697 3.42072,-1.23104 4.7743,-1.82637c0.39456,-0.17332 1.0427,0.15449 1.0427,1.13845l0,9.69813l-0.00001,-0.00001zm-2.13104,-7.31625c0,-0.23361 -0.17598,-0.47153 -0.39811,-0.42255l-1.82219,0.40909c-0.20742,0.06083 -0.39811,0.18947 -0.39811,0.42255l0,5.06303c0,0.23361 0.17852,0.42255 0.39811,0.42255l1.82219,0a0.39811,0.42255 0 0 0 0.39811,-0.42255l0,-5.47212zm6.66901,8.23993l1.08986,0l0,-11.87276c0.41992,0.39294 2.24261,1.4625 2.60015,1.58845l0,-2.21716c-0.7942,-0.37733 -3.08245,-1.91842 -3.69002,-2.53151c-0.60756,0.6131 -2.89582,2.15418 -3.69052,2.53151l0,2.21232c0.35805,-0.12111 2.18023,-1.19013 2.60066,-1.58361l0,11.87276l1.08986,0l0.00001,0zm14.74941,0l-2.06714,0l0,-8.64902c0,-0.25138 0.1633,-0.457 0.44477,-0.37733c1.55492,0.44031 4.65157,1.14814 5.99957,1.35269c0.54975,0.08343 0.93417,0.39294 0.93417,0.73905l0,2.56327c0,0.39294 -0.13389,0.78588 -0.35551,0.89623c0.22213,0.06298 0.42905,0.36172 0.42905,0.81818l0,2.65747l-2.04432,0l0,-1.87159c0,-0.25138 -0.11766,-0.39294 -0.37022,-0.39294l-2.60725,0c-0.19221,0 -0.36261,0.12596 -0.36261,0.31435l0,1.94964l-0.00051,0zm3.34008,-4.6394l0,-0.97482c0,-0.14157 -0.14758,-0.25191 -0.25155,-0.26752c0,0 -2.52002,-0.30466 -2.77055,-0.34611c-0.19221,-0.03176 -0.31088,0.0942 -0.31088,0.32996l0,1.24234c0,0.17279 0.07404,0.28313 0.28147,0.28313l2.81518,0c0.22264,0.00054 0.23633,-0.26699 0.23633,-0.26699l0,0.00001zm-13.55254,-5.98187c0,-0.98397 0.64864,-1.31232 1.04321,-1.13845c1.35409,0.5948 3.31219,1.2994 4.7743,1.82637c0.6172,0.22231 1.04321,0.60556 1.04321,1.21704l0,7.84c0,0.61148 -0.28907,0.87093 -0.86469,0.87093l-5.12981,0c-0.57663,0 -0.8657,-0.30682 -0.8657,-0.9183l0,-9.69759l-0.00051,0l-0.00001,0zm2.13155,7.85345c0,0.23361 0.17852,0.42255 0.39811,0.42255l1.82269,0a0.39811,0.42255 0 0 0 0.39811,-0.42255l0,-5.06303c0,-0.23361 -0.1912,-0.36172 -0.39811,-0.42255l-1.82269,-0.40909c-0.22213,-0.04898 -0.39811,0.18947 -0.39811,0.42255l0,5.47212zm-14.11091,15.54919l2.92371,0l0,1.60998l-2.92371,0l0,-1.60998zm-30.80068,6.59119l0,-13.4343l1.809,0l0,5.15077l1.00669,0l0,-5.15077l1.80951,0l0,13.4343l-1.80951,0l0,-6.52875l-1.00669,0l0,6.52875l-1.809,0zm6.70907,-13.4343l2.71375,0l1.38249,13.4343l-1.82624,0l-0.34131,-3.64198l-1.28004,0l-0.39253,3.64198l-1.6386,0l1.38249,-13.4343l-0.00001,0zm1.75829,8.03808l-0.37529,-5.58516l-0.11969,0l-0.44376,5.58516l0.93873,0l0.00001,0zm2.91458,5.39622l0,-13.4343l2.38918,0c1.45095,0 2.33846,0.56573 2.33846,2.30167l0,1.90604c0,1.00012 -0.25611,1.83014 -1.79226,2.01907l0,0.03768c0.80231,0.11304 1.65533,0.41501 1.7238,1.6412c0.10244,1.79354 0,3.67966 0.29009,5.52864l-1.80951,0c-0.30683,-1.54647 -0.22162,-3.56608 -0.22162,-5.13247c0,-0.81172 -0.27335,-1.13253 -1.10964,-1.09432l0,6.22678l-1.80849,0l-0.00001,0.00001zm1.809,-7.86799l0.34131,0c0.6314,0 0.76833,-0.37733 0.76833,-0.8677l0,-2.43409c0,-0.50921 -0.27335,-0.66047 -0.68262,-0.66047l-0.42702,0l0,3.96225l0,0.00001zm3.80311,7.86799l0,-13.4343l1.809,0l0,11.68006l2.30398,0l0,1.75424l-4.11298,0zm4.68251,0l0,-13.4343l4.02778,0l0,1.75478l-2.21878,0l0,3.45304l2.13358,0l0,1.75478l-2.13358,0l0,4.71745l2.25276,0l0,1.75424l-4.06176,0l0,0.00001zm6.349,-13.4343l0.59742,2.92499c0.25611,1.30155 0.23887,1.49049 0.39253,2.90562l0.03449,0c0.05122,-1.05664 0.11918,-1.94372 0.30683,-2.81196l0.64864,-3.01865l1.68931,0l-1.85972,8.32068l0,5.11363l-1.809,0l0,-5.01889l-1.86124,-8.41541l1.86073,0l0.00001,-0.00001zm6.65785,0l2.1848,0c1.79176,0 2.54335,0.6793 2.54335,3.03803l0,7.96272c0,1.28271 -0.75159,2.43355 -2.15082,2.43355l-2.57733,0l0,-13.4343zm1.809,11.83131l0.42651,0c0.461,0 0.68262,-0.13242 0.68262,-1.00066l0,-8.22702c0,-0.8677 -0.22213,-1.00012 -0.68262,-1.00012l-0.42651,0l0,10.22779l0,0.00001zm5.04055,-11.83131l2.71325,0l1.383,13.4343l-1.82675,0l-0.3408,-3.64198l-1.27954,0l-0.39304,3.64198l-1.63809,0l1.38198,-13.4343l-0.00001,0zm1.75829,8.03808l-0.37529,-5.58516l-0.11969,0l-0.44376,5.58516l0.93873,0l0.00001,0zm3.82441,-8.03808l0.56344,5.604c0.13693,1.32093 0.27335,3.94395 0.41028,5.28318l0.03347,0c0.10194,-1.62236 0.23887,-3.22643 0.35855,-4.83049l0.54569,-6.05669l1.80951,0l-1.43422,13.4343l-2.731,0l-1.36474,-13.4343l1.809,0l0.00002,0zm4.37416,13.4343l0,-13.4343l1.80849,0l0,13.4343l-1.80849,0zm2.75889,-13.4343l2.1853,0c1.79176,0 2.54284,0.6793 2.54284,3.03803l0,7.96272c0,1.28271 -0.75058,2.43355 -2.15031,2.43355l-2.57733,0l0,-13.4343l-0.00051,0l0.00001,0zm1.80951,11.83131l0.42601,0c0.46049,0 0.68262,-0.13242 0.68262,-1.00066l0,-8.22702c0,-0.8677 -0.22213,-1.00012 -0.68262,-1.00012l-0.42601,0l0,10.22779l0,0.00001zm5.63189,-0.56681c0,0.6793 0.18815,0.83056 0.56344,0.83056c0.35855,0 0.54569,-0.15126 0.54569,-0.83056l0,-1.41513c0,-1.8872 -2.91813,-3.73618 -2.91813,-5.92481l0,-1.92434c0,-1.75478 1.24606,-2.26453 2.35571,-2.26453c1.12638,0 2.37244,0.50975 2.37244,2.26453l0,2.83026l-1.80951,0l0,-2.6607c0,-0.6793 -0.18714,-0.83002 -0.54569,-0.83002c-0.37529,0 -0.56344,0.15072 -0.56344,0.83002l0,1.66058c0,0.9619 2.91915,3.86805 2.91915,5.22613l0,2.37811c0,1.75478 -1.24606,2.26345 -2.37244,2.26345c-1.10964,0 -2.35571,-0.50867 -2.35571,-2.26345l0,-3.09509l1.80849,0l0,2.92499zm3.67784,-9.26427c0,-1.75478 1.24606,-2.26453 2.35571,-2.26453c1.12638,0 2.37244,0.50975 2.37244,2.26453l0,9.43491c0,1.75478 -1.24606,2.26345 -2.37244,2.26345c-1.10964,0 -2.35571,-0.50867 -2.35571,-2.26345l0,-9.43491zm1.81001,9.26427c0,0.6793 0.18714,0.83056 0.56243,0.83056c0.35855,0 0.54671,-0.15126 0.54671,-0.83056l0,-9.09472c0,-0.6793 -0.18815,-0.83002 -0.54671,-0.83002c-0.37529,0 -0.56243,0.15072 -0.56243,0.83002l0,9.09472zm6.54526,-11.26451l0.51222,3.86805a67.05117,71.1666 0 0 1 0.85404,7.60369l0.06847,0l0,-0.71698c0.01674,-1.30155 -0.05173,-2.62194 -0.05173,-3.92457l0,-6.83019l1.48493,0l0,13.4343l-2.67927,0l-0.85302,-6.71715c-0.29009,-1.66058 -0.39304,-3.17045 -0.54671,-4.75513l-0.06847,0c0,0.58511 0.03449,1.16967 0.05173,1.73594l0,9.73634l-1.48493,0l0,-13.4343l2.71274,0z" fill="#fff" id="svg_7" stroke="null"/>
  </g>
 </g>

</svg>