<?xml version="1.0" standalone="no"?>
<!DOCTYPE svg PUBLIC "-//W3C//DTD SVG 20010904//EN"
 "http://www.w3.org/TR/2001/REC-SVG-20010904/DTD/svg10.dtd">
<svg version="1.0" xmlns="http://www.w3.org/2000/svg"
 width="900.000000pt" height="287.000000pt" viewBox="0 0 900.000000 287.000000"
 preserveAspectRatio="xMidYMid meet">

<g transform="translate(0.000000,287.000000) scale(0.100000,-0.100000)"
fill="#000000" stroke="none">
<path d="M130 2785 c0 -5 9 -30 20 -54 19 -42 20 -67 20 -692 l0 -650 -25 -49
-25 -50 315 0 c173 0 315 2 315 4 0 2 -11 29 -25 60 -24 55 -25 63 -25 292 l0
235 53 -3 52 -3 3 -232 c2 -229 2 -232 -23 -289 -14 -31 -25 -58 -25 -60 0 -2
139 -4 310 -4 171 0 310 1 310 3 0 2 -11 32 -25 66 -24 57 -25 72 -23 193 l3
130 134 -1 c120 -2 133 0 127 14 -19 52 -17 92 12 160 l29 70 98 0 97 0 29
-78 c24 -65 27 -85 20 -117 -5 -21 -6 -41 -3 -44 3 -3 684 -6 1514 -6 l1508 0
0 165 0 164 -47 -14 c-29 -9 -91 -15 -155 -15 l-108 0 0 60 0 60 103 0 c63 0
123 -6 153 -15 27 -8 50 -15 52 -15 1 0 2 77 2 171 0 159 -1 171 -17 163 -10
-4 -80 -10 -155 -12 l-138 -4 0 62 0 62 130 -4 c74 -2 134 -8 141 -15 5 -5 46
-85 90 -177 l79 -166 0 -180 0 -179 -30 -51 c-16 -28 -30 -53 -30 -55 0 -3
144 -5 320 -5 176 0 320 2 320 4 0 3 -16 31 -35 63 l-35 58 0 166 0 166 125
259 c101 207 136 270 180 320 30 34 55 66 55 71 0 5 -397 9 -436 3 -1 0 2 -16
6 -36 7 -31 3 -49 -32 -126 -23 -49 -44 -85 -48 -81 -4 4 -21 42 -39 85 -22
52 -31 84 -26 100 18 64 85 57 -644 60 -364 2 -661 0 -661 -4 0 -4 13 -30 30
-56 l30 -49 0 -345 0 -346 -22 -6 c-13 -3 -65 -6 -115 -6 l-93 0 0 345 0 346
30 59 c17 33 30 61 30 62 0 2 -141 2 -312 1 -172 -1 -313 -4 -313 -5 1 -2 15
-29 33 -60 29 -51 33 -64 30 -120 l-3 -63 -23 50 c-30 65 -109 138 -180 167
-55 22 -70 23 -450 28 -215 3 -392 4 -392 3 0 0 13 -30 30 -65 l30 -63 0 -337
c0 -219 -4 -338 -10 -338 -5 0 -10 4 -10 10 0 5 -62 167 -139 359 -121 306
-138 356 -134 393 l5 43 -236 -2 c-130 -1 -236 -5 -237 -8 -1 -3 2 -20 5 -39
6 -33 -13 -89 -186 -531 -22 -55 -47 -120 -55 -145 -9 -25 -20 -49 -24 -54 -5
-6 -9 133 -9 320 0 327 1 329 25 389 14 33 25 62 25 65 0 3 -137 5 -305 5
-168 0 -305 -2 -305 -5 0 -3 9 -34 20 -68 17 -55 20 -92 20 -278 l0 -214 -55
0 -55 0 0 218 c0 193 2 226 20 277 11 32 20 61 20 64 0 3 -137 6 -305 6 -197
0 -305 -4 -305 -10z m502 -345 l-3 -280 126 0 126 0 -3 280 -3 280 195 0 195
0 0 -680 0 -680 -195 0 -195 0 3 295 3 295 -126 0 -126 0 3 -295 3 -295 -199
0 c-177 0 -197 2 -192 16 3 9 6 315 6 680 l0 664 193 0 192 0 -3 -280z m1358
265 c0 -19 347 -893 366 -922 l14 -23 -205 0 c-189 0 -205 1 -205 18 0 9 -17
63 -37 120 l-37 102 -152 0 -152 0 -44 -120 -43 -120 -87 0 c-49 0 -88 2 -88
5 0 3 5 13 10 23 6 9 35 82 66 162 31 80 108 278 171 440 63 162 115 303 116
313 1 15 16 17 154 17 128 0 153 -2 153 -15z m1125 -13 c60 -28 110 -73 137
-127 29 -56 29 -174 0 -231 -20 -40 -81 -102 -121 -123 -20 -11 -17 -19 86
-224 59 -117 109 -215 111 -219 2 -5 -86 -8 -196 -8 l-200 0 -71 208 -70 207
2 -208 2 -207 -185 0 -185 0 0 481 0 480 320 -3 c309 -3 322 -4 370 -26z m667
-377 l-3 -405 151 0 150 0 0 -75 0 -75 -332 0 -333 0 0 480 0 480 185 0 185 0
-3 -405z m1048 335 l0 -71 -152 1 c-84 1 -154 -1 -155 -4 -2 -3 -3 -64 -3
-136 l0 -130 155 0 155 0 0 -67 0 -68 -156 0 -155 0 -2 -133 -2 -132 158 0
157 0 0 -75 0 -75 -340 0 -340 0 0 480 0 480 340 0 340 0 0 -70z m410 60 c0
-15 144 -340 150 -340 8 0 160 322 160 338 0 9 26 12 96 12 53 0 94 -3 92 -7
-1 -5 -63 -129 -136 -278 l-133 -269 3 -203 3 -203 -185 0 -185 0 3 197 3 198
-127 265 c-69 146 -130 269 -135 275 -5 5 -9 13 -9 17 0 4 90 8 200 8 130 0
200 -4 200 -10z m-1892 -692 l-3 -113 -68 134 -68 133 40 34 c22 19 52 60 68
92 l28 57 3 -112 c1 -62 1 -164 0 -225z"/>
<path d="M1689 2280 l-46 -130 95 0 c71 0 93 3 89 13 -2 6 -22 65 -43 130 -21
64 -41 117 -44 117 -3 0 -26 -58 -51 -130z"/>
<path d="M2790 2429 l0 -161 33 6 c17 4 43 18 57 31 22 22 25 36 28 109 5 119
-26 176 -98 176 -19 0 -20 -8 -20 -161z"/>
<path d="M5681 2328 c-5 -18 -28 -94 -51 -168 -23 -74 -43 -141 -45 -147 -4
-10 80 -13 393 -13 l397 0 49 168 c27 92 51 173 54 180 3 9 -79 12 -391 12
l-395 0 -11 -32z m699 -41 c0 -1 -13 -49 -30 -107 -16 -58 -30 -106 -30 -107
0 -6 -627 -3 -632 3 -5 4 35 144 56 200 4 12 58 14 321 14 173 0 315 -1 315
-3z"/>
<path d="M1674 1815 c-8 -21 -14 -49 -12 -64 3 -25 6 -26 71 -29 80 -3 88 5
66 76 -15 47 -15 47 -62 50 -46 3 -48 2 -63 -33z"/>
<path d="M6251 1645 c-110 -31 -216 -113 -253 -195 -7 -17 -15 -30 -18 -29 -3
0 -21 22 -41 48 -70 92 -197 154 -353 172 -103 11 -1256 12 -1256 0 0 -5 6
-26 14 -48 14 -39 12 -46 -39 -208 l-53 -168 -16 54 c-9 30 -31 104 -49 164
-30 99 -32 114 -21 145 27 77 74 70 -501 70 l-516 0 7 -35 c3 -19 7 -40 8 -47
1 -16 -157 -468 -164 -468 -3 0 -13 33 -22 72 -55 229 -202 382 -428 449 -70
20 -100 22 -452 26 -208 3 -378 2 -378 -1 0 -4 11 -29 25 -56 l25 -49 0 -680
c0 -657 -1 -681 -20 -726 -11 -26 -20 -50 -20 -53 0 -4 188 -5 417 -2 408 5
419 6 475 28 156 63 298 235 347 420 l12 42 100 0 c88 0 100 2 95 16 -18 47
-17 71 4 140 l24 74 80 0 81 0 23 -78 c17 -60 20 -85 13 -114 l-9 -38 494 0
494 0 0 46 c0 30 30 141 85 317 47 149 85 276 85 284 0 7 3 13 8 13 4 0 5
-127 2 -282 -5 -269 -6 -285 -27 -325 -13 -23 -23 -45 -23 -48 0 -3 253 -5
563 -5 612 0 630 1 727 57 55 31 126 98 147 136 22 42 24 29 7 -37 -8 -32 -12
-62 -7 -66 16 -15 153 -70 215 -87 97 -25 275 -22 357 6 108 38 180 98 224
187 l20 43 29 -44 c63 -95 175 -170 293 -196 85 -18 285 -16 365 5 148 38 266
124 322 237 l27 54 1 -93 c0 -78 -4 -100 -25 -144 -14 -28 -25 -53 -25 -55 0
-2 88 -3 195 -3 107 0 195 2 195 5 0 3 -11 28 -25 55 -23 46 -25 59 -25 196
l0 147 120 -154 c65 -85 130 -175 142 -201 l23 -47 217 -1 216 0 -19 50 c-18
47 -19 82 -19 485 l0 435 35 49 c19 26 35 51 35 55 0 3 -92 6 -205 6 -134 0
-205 -4 -205 -10 0 -6 11 -33 25 -60 23 -46 25 -59 25 -195 0 -128 -7 -172
-23 -132 -2 6 -59 83 -126 169 -66 87 -124 173 -129 190 l-8 33 -227 3 c-125
1 -227 0 -227 -2 0 -3 14 -28 30 -56 28 -47 30 -58 30 -143 l-1 -92 -31 58
c-61 112 -189 202 -333 232 -90 19 -232 19 -329 0 -201 -38 -362 -196 -392
-385 -6 -39 -17 -50 -28 -31 -4 5 10 78 29 162 19 84 35 160 35 170 0 18 -54
44 -150 74 -78 24 -278 30 -349 10z m-2613 -80 c22 -31 48 -82 57 -113 26 -89
194 -639 220 -719 l24 -73 -24 18 c-28 20 -29 22 -204 512 -119 331 -147 430
-123 430 5 0 27 -25 50 -55z m2860 15 c63 -11 151 -36 164 -48 7 -7 -1 -53
-23 -134 l-9 -37 -74 40 c-95 51 -159 60 -199 29 -24 -19 -28 -28 -25 -64 3
-46 11 -52 166 -114 104 -42 159 -84 190 -144 68 -132 15 -340 -106 -416 -126
-80 -332 -84 -503 -11 -27 12 -49 26 -49 31 0 5 10 47 21 93 l21 85 48 -35
c108 -80 211 -98 269 -49 24 20 31 34 31 61 0 50 -12 66 -72 92 -155 69 -197
91 -230 120 -112 98 -111 297 3 410 80 81 225 115 377 91z m947 -13 c211 -58
315 -208 315 -455 0 -177 -46 -296 -147 -378 -88 -72 -200 -104 -362 -104
-251 1 -392 96 -455 309 -34 114 -16 332 34 432 57 110 178 187 330 210 72 10
222 3 285 -14z m-4954 -11 c219 -39 359 -178 421 -418 18 -69 22 -113 22 -253
1 -93 -3 -183 -7 -200 -5 -19 -5 -26 1 -20 11 12 312 874 312 893 0 9 32 12
128 12 l129 0 160 -447 c88 -247 163 -455 167 -463 6 -14 -14 -16 -165 -15
l-172 0 -12 45 c-6 25 -22 78 -35 118 l-24 72 -131 0 -131 0 -39 -118 -40
-118 -73 1 c-40 1 -75 -2 -78 -7 -3 -5 -14 -41 -25 -80 -42 -150 -143 -295
-246 -351 -97 -52 -139 -57 -488 -57 l-320 0 0 710 0 710 285 0 c195 -1 309
-5 361 -14z m1589 -3 c-1 -28 164 -583 173 -583 4 0 7 6 7 13 0 7 38 133 85
279 47 146 85 275 85 287 0 20 5 21 81 21 73 0 80 -2 74 -17 -14 -33 -266
-838 -273 -873 l-8 -35 -147 0 c-129 -1 -147 1 -147 16 0 8 -9 42 -19 75 -11
32 -70 226 -131 429 -62 204 -117 378 -122 388 -8 16 3 17 167 17 160 0 175
-1 175 -17z m873 -445 l-3 -463 -157 0 -158 -1 0 463 0 463 160 0 160 0 -2
-462z m665 452 c170 -28 276 -111 326 -255 23 -67 32 -224 17 -311 -30 -172
-145 -306 -291 -340 -19 -4 -154 -8 -300 -9 l-265 -1 0 463 0 463 225 0 c124
0 253 -5 288 -10z m2526 -5 c5 -13 371 -500 398 -530 5 -6 7 105 6 268 l-3
277 75 0 75 0 -2 -462 -3 -463 -130 0 c-129 -1 -131 -1 -147 25 -9 14 -102
138 -207 275 l-191 250 -3 -40 c-2 -22 -2 -146 0 -275 l3 -236 -72 0 -73 0 0
463 0 463 134 0 c111 0 135 -3 140 -15z"/>
<path d="M7214 1446 c-80 -35 -109 -123 -108 -336 0 -182 15 -250 69 -308 31
-35 37 -37 94 -37 52 0 63 4 90 29 17 16 37 50 46 75 51 156 37 444 -27 533
-37 52 -104 70 -164 44z m104 -91 c31 -39 45 -151 39 -295 -6 -146 -23 -202
-67 -220 -72 -30 -102 38 -108 246 -4 159 9 243 44 278 24 25 69 20 92 -9z"/>
<path d="M2245 1348 c-3 -7 -4 -231 -3 -498 l3 -485 47 2 c77 2 127 37 165
113 47 95 64 194 63 384 0 301 -63 454 -200 485 -59 14 -70 13 -75 -1z m113
-101 c57 -60 92 -207 92 -385 0 -214 -44 -377 -111 -412 -19 -11 -19 -3 -19
405 0 228 4 415 8 415 5 0 18 -10 30 -23z"/>
<path d="M3246 1154 c-22 -68 -37 -126 -34 -129 3 -3 39 -5 80 -3 l75 3 -36
122 c-20 67 -39 124 -41 126 -3 3 -23 -51 -44 -119z"/>
<path d="M5422 1108 l3 -323 43 2 c123 5 178 121 170 353 -4 107 -7 123 -36
182 -35 72 -84 108 -146 108 l-36 0 2 -322z m123 160 c16 -41 20 -78 20 -163
0 -117 -13 -178 -45 -217 -19 -23 -19 -22 -20 216 0 257 5 274 45 164z"/>
<path d="M2806 1581 c56 -40 137 -133 171 -197 l30 -55 42 124 c23 69 39 131
35 140 -5 15 -25 17 -162 17 l-155 0 39 -29z"/>
<path d="M4471 700 c-7 -25 -15 -48 -18 -52 -2 -5 -2 -8 1 -8 12 0 37 63 34
83 -3 16 -7 10 -17 -23z"/>
</g>
</svg>
